<?xml version="1.0" encoding="UTF-8"?>
<svg width="127px" height="128px" viewBox="0 0 127 128" version="1.1" xmlns="http://www.w3.org/2000/svg" xmlns:xlink="http://www.w3.org/1999/xlink">
  <defs>
    <polygon id="path-1" points="0.000189552239 127.102941 126.660701 127.102941 126.660701 0.338055882 0.000189552239 0.338055882 0.000189552239 127.102941"></polygon>
    <polygon id="path-3" points="0 0.100938277 0 43.0723412 23.6806368 43.0723412 23.6806368 0.100938277 5.13782373e-20 0.100938277"></polygon>
  </defs>
  <g id="Color" stroke="none" stroke-width="1" fill="none" fill-rule="evenodd">
    <g transform="translate(-742.000000, -614.000000)" id="11">
      <g transform="translate(742.000000, 614.000000)">
        <path d="M63.3309194,124.816546 C96.737606,124.816546 123.818934,97.7132662 123.818934,64.2795015 C123.818934,30.8457368 96.737606,3.74245735 63.3309194,3.74245735 C29.9242328,3.74245735 2.84290448,30.8457368 2.84290448,64.2795015 C2.84290448,97.7132662 29.9242328,124.816546 63.3309194,124.816546" id="Fill-1" fill="#FEFEFE"></path>
        <path d="M87.3458612,8.71313088 L91.2316821,28.7650426 L114.237637,31.6030426 C107.775801,21.5391456 98.4251896,13.5164838 87.3458612,8.71313088" id="Fill-14" fill="#4C4C4C"></path>
        <path d="M113.76224,97.6986588 C120.11224,88.1204088 123.817987,76.6356147 123.817987,64.2800706 C123.817987,62.9805853 123.763016,61.6962765 123.683404,60.4176588 L105.823793,73.4827029 L113.76224,97.6986588 Z" id="Fill-40" fill="#4C4C4C"></path>
        <path d="M85.1745403,120.730471 L63.7551373,105.884088 L43.365003,121.424794 C49.6183313,123.614 56.3322716,124.816735 63.3305403,124.816735 C71.0358388,124.816735 78.3961522,123.359794 85.1745403,120.730471" id="Fill-18" fill="#4C4C4C"></path>
        <path d="M97.3083478,14.0785824 C103.652661,23.6549353 107.356512,35.1340382 107.356512,47.4857882 C107.356512,80.9195529 80.2751836,108.022832 46.868497,108.022832 C34.5286463,108.022832 23.0569448,104.315979 13.4902433,97.9646265 C24.3212582,114.311582 42.8632582,125.096362 63.9281985,125.096362 C97.3348851,125.096362 124.416213,97.9930824 124.416213,64.5593176 C124.416213,43.4754059 113.642064,24.9183765 97.3083478,14.0785824" id="Fill-53" fill="#010202" opacity="0.3"></path>
        <g id="Group-5" transform="translate(0.000000, 0.559003)">
          <mask id="mask-2" fill="white">
            <use xlink:href="#path-1"></use>
          </mask>
          <g id="Clip-4"></g>
          <path d="M63.3314881,6.02923235 C31.5454731,6.02923235 5.68675672,31.9089088 5.68675672,63.7206882 C5.68675672,95.5305706 31.5454731,121.412144 63.3314881,121.412144 C95.117503,121.412144 120.974324,95.5305706 120.974324,63.7206882 C120.974324,31.9089088 95.117503,6.02923235 63.3314881,6.02923235 M63.3314881,127.103321 C28.4102791,127.103321 0.000189552239,98.6683059 0.000189552239,63.7206882 C0.000189552239,28.7711735 28.4102791,0.338055882 63.3314881,0.338055882 C98.252697,0.338055882 126.660891,28.7711735 126.660891,63.7206882 C126.660891,98.6683059 98.252697,127.103321 63.3314881,127.103321" id="Fill-3" fill="#2E2E31" mask="url(#mask-2)"></path>
        </g>
        <polygon id="Fill-6" fill="#4C4C4C" points="63.3309194 86.7621147 39.7108149 69.5880412 48.7335015 41.7980265 77.9283373 41.7980265 86.9510239 69.5880412"></polygon>
        <path d="M43.054706,68.4993191 L63.331109,83.2432603 L83.6094075,68.4993191 L75.864303,44.6438044 L50.7979149,44.6438044 L43.054706,68.4993191 Z M63.331109,89.6078926 C62.7453925,89.6078926 62.1577806,89.425775 61.6592582,89.0653338 L38.0391537,71.8893632 C37.0440045,71.1646868 36.6269896,69.8803779 37.0079896,68.7060985 L46.0268851,40.9179809 C46.4097806,39.7455985 47.5016015,38.9526279 48.7317955,38.9526279 L77.9285269,38.9526279 C79.1606164,38.9526279 80.2524373,39.7455985 80.6334373,40.9179809 L89.6561239,68.7060985 C90.0352284,69.8803779 89.6182134,71.1627897 88.6230642,71.8893632 L65.0029597,89.0653338 C64.5044373,89.425775 63.9187209,89.6078926 63.331109,89.6078926 L63.331109,89.6078926 Z" id="Fill-8" fill="#2E2E31"></path>
        <path d="M42.8325507,7.31499853 C30.833894,11.6402926 20.6018642,19.6534691 13.4898642,29.9886456 L38.1032224,27.8297926 L42.8325507,7.31499853 Z" id="Fill-10" fill="#4C4C4C"></path>
        <path d="M38.8193507,12.0618191 C31.5519179,15.4992897 24.9972015,20.4847603 19.7124851,26.5857015 L35.7959925,25.1761868 L38.8193507,12.0618191 Z M13.4894851,32.8346132 C12.4829627,32.8346132 11.5427836,32.2996426 11.0328881,31.4213044 C10.4775,30.4689809 10.5229925,29.2814221 11.1466194,28.3746279 C18.7306045,17.3584074 29.3550075,9.14983382 41.8673507,4.63862794 C42.8454403,4.28387794 43.9410522,4.49445147 44.7201119,5.18687794 C45.4972761,5.87930441 45.8365746,6.93976029 45.6034254,7.95468676 L40.874097,28.4694809 C40.5954552,29.6703191 39.5775597,30.5562456 38.3511567,30.6643779 L13.7377985,32.8232309 C13.6543955,32.8308191 13.5709925,32.8346132 13.4894851,32.8346132 L13.4894851,32.8346132 Z" id="Fill-12" fill="#2E2E31"></path>
        <path d="M93.6283806,26.1943382 L108.12344,27.9813676 C103.447187,22.1934412 97.7246045,17.3862941 91.2248582,13.7894706 L93.6283806,26.1943382 Z M114.238396,34.4503382 C114.124664,34.4503382 114.007142,34.44275 113.889619,34.4275735 L90.8836642,31.5895735 C89.6610522,31.4397059 88.6753806,30.5177353 88.4403358,29.3074118 L84.5545149,9.2555 C84.3535896,8.21780882 84.7440672,7.15545588 85.5648284,6.49527941 C86.3893806,5.83510294 87.5077388,5.68144118 88.4763507,6.10258824 C100.05041,11.1203088 109.785813,19.4066618 116.630545,30.0662353 C117.225739,30.9938971 117.231425,32.1833529 116.645709,33.1186029 C116.120649,33.9533088 115.208903,34.4503382 114.238396,34.4503382 L114.238396,34.4503382 Z" id="Fill-16" fill="#2E2E31"></path>
        <g id="Group-22" transform="translate(39.805970, 103.000179)" fill="#2E2E31">
          <path d="M9.73123284,17.2977618 C19.3377403,19.6690853 29.5735612,19.5059382 39.079606,16.8348794 L24.0272627,6.39915882 L9.73123284,17.2977618 Z M23.5249493,24.6621441 C16.3845164,24.6621441 9.35023284,23.4669971 2.62112836,21.11085 C1.63356119,20.7636882 0.915158209,19.9043206 0.752143284,18.8685265 C0.587232836,17.8346294 1.00424776,16.7950412 1.83638209,16.1595265 L22.2246209,0.618820588 C23.204606,-0.130517647 24.5523224,-0.157076471 25.5664269,0.542938235 L46.9877254,15.3912176 C47.8520836,15.9925853 48.314591,17.0207912 48.1913821,18.0660706 C48.0681731,19.11135 47.3763075,20.0048647 46.3963224,20.3842765 C39.079606,23.2222765 31.3856806,24.6621441 23.5249493,24.6621441 L23.5249493,24.6621441 Z" id="Fill-20"></path>
        </g>
        <path d="M20.8380463,73.4827029 L2.97843433,60.4176588 C2.89692687,61.6962765 2.84385224,62.9805853 2.84385224,64.2800706 C2.84385224,76.6356147 6.54959851,88.1204088 12.8995985,97.6986588 L20.8380463,73.4827029 Z" id="Fill-23" fill="#4C4C4C"></path>
        <g id="Group-27" transform="translate(0.000000, 57.470768)">
          <mask id="mask-4" fill="white">
            <use xlink:href="#path-3"></use>
          </mask>
          <g id="Clip-26"></g>
          <path d="M5.7106403,8.46998824 C5.95895373,17.2040471 8.16155075,25.6839 12.1554164,33.3707824 L17.4932075,17.0902235 L5.7106403,8.46998824 Z M12.9003567,43.0723412 C11.9563866,43.0723412 11.0617,42.6018706 10.5309537,41.7994147 C3.64072985,31.4111206 -0.000568656716,19.3116794 -0.000568656716,6.80816471 C-0.000568656716,5.44987059 0.0581925373,4.10675294 0.141595522,2.77122353 C0.206043284,1.73353235 0.831565672,0.813458824 1.77174478,0.371444118 C2.70623731,-0.0705705882 3.81701343,0.0337676471 4.65483433,0.650311765 L22.5144463,13.7153559 C23.511491,14.4419294 23.9228194,15.7281353 23.5380284,16.8986206 L15.6014761,41.1145765 C15.2621776,42.1503706 14.359909,42.8997088 13.2813567,43.0476794 C13.1543567,43.0628559 13.0254612,43.0723412 12.9003567,43.0723412 L12.9003567,43.0723412 Z" id="Fill-25" fill="#2E2E31" mask="url(#mask-4)"></path>
        </g>
        <line x1="48.7327433" y1="41.7974574" x2="38.7111164" y2="28.6527368" id="Fill-28" fill="#FEFEFE"></line>
        <path d="M48.7338806,44.643425 C47.8771045,44.643425 47.0317015,44.2583221 46.4725224,43.5241603 L36.452791,30.3794397 C35.4993433,29.1292779 35.7400746,27.3441456 36.9873284,26.3918221 C38.2402687,25.4376015 40.0201642,25.6785279 40.9717164,26.9286897 L50.9914478,40.0715132 C51.9448955,41.321675 51.7041642,43.1068074 50.4569104,44.0591309 C49.9413284,44.4537191 49.3347612,44.643425 48.7338806,44.643425" id="Fill-30" fill="#2E2E31"></path>
        <line x1="77.928906" y1="41.7974574" x2="91.2316821" y2="28.7665603" id="Fill-32" fill="#FEFEFE"></line>
        <path d="M77.9292851,44.643425 C77.1900313,44.643425 76.4545687,44.3588662 75.8972851,43.7878515 C74.7997776,42.6666897 74.8168373,40.8644838 75.9408821,39.7641897 L89.2436582,26.7332926 C90.3620164,25.6329985 92.1646582,25.6519691 93.2640612,26.7750279 C94.3615687,27.8980868 94.3426134,29.7002926 93.2185687,30.7986897 L79.9176881,43.8314838 C79.366091,44.3721456 78.6476881,44.643425 77.9292851,44.643425" id="Fill-34" fill="#2E2E31"></path>
        <line x1="39.7106254" y1="69.5870926" x2="20.8388045" y2="73.4817544" id="Fill-36" fill="#FEFEFE"></line>
        <path d="M20.8340657,76.3282912 C19.5147821,76.3282912 18.3300806,75.4025265 18.0533343,74.0575118 C17.7348866,72.5171 18.7262448,71.0127324 20.2635134,70.6959235 L39.1372299,66.8012618 C40.6612299,66.4787618 42.1795433,67.4728206 42.4960955,69.0132324 C42.8145433,70.5517471 41.8231851,72.0561147 40.2859164,72.3729235 L21.4122,76.2694824 C21.2188567,76.3093206 21.0255134,76.3282912 20.8340657,76.3282912" id="Fill-38" fill="#2E2E31"></path>
        <g id="Group-44" transform="translate(102.358209, 57.470768)" fill="#2E2E31">
          <path d="M6.81023284,17.0883265 L12.1480239,33.3688853 C16.1418896,25.6839 18.3444866,17.2040471 18.5928,8.46998824 L6.81023284,17.0883265 Z M11.4049791,43.0723412 C11.2779791,43.0723412 11.1509791,43.0628559 11.0239791,43.0476794 C9.94353134,42.8997088 9.04315821,42.1503706 8.7038597,41.1145765 L0.76541194,16.8986206 C0.378725373,15.7281353 0.791949254,14.4419294 1.78899403,13.7153559 L19.6467104,0.650311765 C20.4864269,0.0356647059 21.5953075,-0.0667764706 22.5298,0.369547059 C23.4699791,0.811561765 24.0955015,1.72973824 24.1618448,2.76742941 C24.2566209,4.25282647 24.304009,5.57697353 24.304009,6.80816471 C24.304009,19.3097824 20.6627104,31.4092235 13.7743821,41.7994147 C13.2436358,42.6018706 12.3489493,43.0723412 11.4049791,43.0723412 L11.4049791,43.0723412 Z" id="Fill-42"></path>
        </g>
        <line x1="86.9510239" y1="69.5870926" x2="105.822845" y2="73.4817544" id="Fill-45" fill="#FEFEFE"></line>
        <path d="M105.827204,76.3282912 C105.635757,76.3282912 105.442413,76.3093206 105.24907,76.2694824 L86.3772493,72.3729235 C84.8399806,72.0561147 83.8486224,70.5517471 84.1670701,69.0132324 C84.4836224,67.4728206 86.0000403,66.4806588 87.5259358,66.8012618 L106.397757,70.6959235 C107.935025,71.0127324 108.926384,72.5171 108.607936,74.0575118 C108.33119,75.4025265 107.146488,76.3282912 105.827204,76.3282912" id="Fill-47" fill="#2E2E31"></path>
        <line x1="63.3309194" y1="86.7621147" x2="63.3309194" y2="105.882571" id="Fill-49" fill="#FEFEFE"></line>
        <path d="M63.3314881,108.728349 C61.7619955,108.728349 60.4882045,107.453525 60.4882045,105.88276 L60.4882045,86.7623044 C60.4882045,85.1915397 61.7619955,83.9167162 63.3314881,83.9167162 C64.9009806,83.9167162 66.1747716,85.1915397 66.1747716,86.7623044 L66.1747716,105.88276 C66.1747716,107.453525 64.9009806,108.728349 63.3314881,108.728349" id="Fill-51" fill="#2E2E31"></path>
      </g>
    </g>
  </g>
</svg>
