<?xml version="1.0" encoding="UTF-8"?>
<svg width="127px" height="128px" viewBox="0 0 127 128" version="1.1" xmlns="http://www.w3.org/2000/svg" xmlns:xlink="http://www.w3.org/1999/xlink">
  <defs>
    <polygon id="path-1" points="0.000189552239 127.102941 126.662597 127.102941 126.662597 0.338055882 0.000189552239 0.338055882 0.000189552239 127.102941"></polygon>
  </defs>
  <g id="Color" stroke="none" stroke-width="1" fill="none" fill-rule="evenodd">
    <g transform="translate(-938.000000, -225.000000)" id="4">
      <g transform="translate(938.000000, 225.000000)">
        <path d="M63.3314881,3.74283676 C29.9248015,3.74283676 2.84347313,30.8461162 2.84347313,64.2798809 C2.84347313,97.7136456 29.9248015,124.816925 63.3314881,124.816925 C96.7381746,124.816925 123.819503,97.7136456 123.819503,64.2798809 C123.819503,30.8461162 96.7381746,3.74283676 63.3314881,3.74283676" id="Fill-1" fill="#50525E"></path>
        <path d="M96.7110687,13.799525 C103.055382,23.3758779 106.759233,34.8549809 106.759233,47.2067309 C106.759233,80.6404956 79.6779045,107.743775 46.2712179,107.743775 C33.9313672,107.743775 22.4596657,104.036922 12.8929642,97.6855691 C23.7239791,114.032525 42.2659791,124.817304 63.3309194,124.817304 C96.737606,124.817304 123.818934,97.714025 123.818934,64.2802603 C123.818934,43.1963485 113.044785,24.6393191 96.7110687,13.799525" id="Fill-6" fill="#010202" opacity="0.3"></path>
        <g id="Group-5" transform="translate(0.000000, 0.559003)">
          <mask id="mask-2" fill="white">
            <use xlink:href="#path-1"></use>
          </mask>
          <g id="Clip-4"></g>
          <path d="M63.3314881,6.02923235 C31.5454731,6.02923235 5.68675672,31.9108059 5.68675672,63.7206882 C5.68675672,95.5324676 31.5454731,121.412144 63.3314881,121.412144 C95.117503,121.412144 120.976219,95.5324676 120.976219,63.7206882 C120.976219,31.9108059 95.117503,6.02923235 63.3314881,6.02923235 M63.3314881,127.103321 C28.4102791,127.103321 0.000189552239,98.6702029 0.000189552239,63.7206882 C0.000189552239,28.7711735 28.4102791,0.338055882 63.3314881,0.338055882 C98.252697,0.338055882 126.662787,28.7711735 126.662787,63.7206882 C126.662787,98.6702029 98.252697,127.103321 63.3314881,127.103321" id="Fill-3" fill="#2E2E31" mask="url(#mask-2)"></path>
        </g>
        <path d="M63.3314881,33.2066265 C46.1845925,33.2066265 32.2828313,47.1177588 32.2828313,64.28045 C32.2828313,81.4412441 46.1845925,95.3523765 63.3314881,95.3523765 C80.4783836,95.3523765 94.3801448,81.4412441 94.3801448,64.28045 C94.3801448,47.1177588 80.4783836,33.2066265 63.3314881,33.2066265" id="Fill-8" fill="#FEFEFE"></path>
        <path d="M63.3314881,36.052025 C47.7787269,36.052025 35.1261149,48.7148926 35.1261149,64.2802603 C35.1261149,79.8437309 47.7787269,92.5065985 63.3314881,92.5065985 C78.8842493,92.5065985 91.5368612,79.8437309 91.5368612,64.2802603 C91.5368612,48.7148926 78.8842493,36.052025 63.3314881,36.052025 M63.3314881,98.197775 C44.6435328,98.197775 29.4395478,82.9833632 29.4395478,64.2802603 C29.4395478,45.5771574 44.6435328,30.3608485 63.3314881,30.3608485 C82.0194433,30.3608485 97.2234284,45.5771574 97.2234284,64.2802603 C97.2234284,82.9833632 82.0194433,98.197775 63.3314881,98.197775" id="Fill-10" fill="#2E2E31"></path>
        <path d="M63.3314881,60.9492147 C64.6829955,60.9492147 65.7558612,60.5963618 66.5481896,59.8906559 C67.3424134,59.18495 67.7385776,58.2876412 67.7385776,57.2006265 L67.7385776,57.1114647 C67.7385776,56.1705235 67.3575776,55.3339206 66.5936821,54.5978618 C65.827891,53.8637 64.7417567,53.4937735 63.3314881,53.4937735 C61.9212194,53.4937735 60.8350851,53.8561118 60.069294,54.5750971 C59.3053985,55.2959794 58.9243985,56.1268912 58.9243985,57.0678324 L58.9243985,57.1550971 C58.9243985,58.2440088 59.3205627,59.1489059 60.1147866,59.8697882 C60.9090104,60.5906706 61.9799806,60.9492147 63.3314881,60.9492147 M63.3314881,74.0503029 C65.0071299,74.0503029 66.3131448,73.6822735 67.2533239,72.9481118 C68.193503,72.2120529 68.6635925,71.3014647 68.6635925,70.2125529 L68.6635925,70.1233912 C68.6635925,68.9187588 68.1650701,67.9854059 67.1661299,67.3233324 C66.1671896,66.6612588 64.8877119,66.3311706 63.3314881,66.3311706 C61.7752642,66.3311706 60.4957866,66.6612588 59.4987418,67.3233324 C58.497906,67.9854059 57.9993836,68.9187588 57.9993836,70.1233912 L57.9993836,70.2125529 C57.9993836,71.2711118 58.4694731,72.1760088 59.4096522,72.9253471 C60.3498313,73.6746853 61.6558463,74.0503029 63.3314881,74.0503029 M63.3314881,79.6523176 C61.6274134,79.6523176 60.0484433,79.4398471 58.5945776,79.0130088 C57.1388164,78.5861706 55.8820851,77.9829059 54.8262791,77.2032147 C53.7666821,76.4254206 52.9383388,75.4920676 52.3355627,74.4031559 C51.7327866,73.3161412 51.4313985,72.0944353 51.4313985,70.7418324 L51.4313985,70.6545676 C51.4313985,68.7726853 51.850309,67.2512441 52.6881299,66.0883471 C53.5240552,64.9273471 54.7656224,63.9636412 56.4128313,63.1991265 C55.2072791,62.4649647 54.2519358,61.5752441 53.5468015,60.5299647 C52.8416672,59.4865824 52.4891,58.1263912 52.4891,56.4493912 L52.4891,56.3621265 C52.4891,55.18595 52.746891,54.0837588 53.2624731,53.0536559 C53.7742642,52.0235529 54.5097269,51.1281412 55.4650701,50.3617294 C56.4204134,49.5991118 57.5577269,48.9958471 58.878906,48.5538324 C60.2038761,48.1137147 61.6861746,47.8936559 63.3314881,47.8936559 C64.9483687,47.8936559 66.4249806,48.1137147 67.7613239,48.5538324 C69.0976672,48.9958471 70.2425627,49.5915235 71.197906,50.3408618 C72.1532493,51.0902 72.8887119,51.9875088 73.4023985,53.0308912 C73.9160851,54.0761706 74.1738761,55.18595 74.1738761,56.3621265 L74.1738761,56.4493912 C74.1738761,58.1263912 73.821309,59.4865824 73.1161746,60.5299647 C72.4110403,61.5752441 71.455697,62.4649647 70.2501448,63.1991265 C71.8101597,64.02245 73.0270851,64.9861559 73.9103985,66.0883471 C74.7918164,67.1924353 75.2315776,68.6550676 75.2315776,70.4762441 L75.2315776,70.5654059 C75.2315776,72.0071706 74.9301896,73.2857882 74.329309,74.4031559 C73.7246373,75.5205235 72.896294,76.4690529 71.8385925,77.2487441 C70.780891,78.0265382 69.5241597,78.6222147 68.070294,79.0357735 C66.6145328,79.4455382 65.0355627,79.6523176 63.3314881,79.6523176" id="Fill-12" fill="#2F2E30"></path>
      </g>
    </g>
  </g>
</svg>
