<?xml version="1.0" encoding="UTF-8"?>
<svg width="133px" height="139px" viewBox="0 0 133 139" version="1.1" xmlns="http://www.w3.org/2000/svg" xmlns:xlink="http://www.w3.org/1999/xlink">
  <defs>
    <polygon id="path-1" points="116.0457 116.508696 116.0457 0.51052577 0.300288043 0.51052577 0.300288043 116.508696 116.0457 116.508696"></polygon>
    <polygon id="path-3" points="22.975465 23.7534247 0 23.7534247 0 0.72759863 22.975465 0.72759863 22.975465 23.7534247"></polygon>
  </defs>
  <g id="Color" stroke="none" stroke-width="1" fill="none" fill-rule="evenodd">
    <g transform="translate(-344.000000, -219.000000)" id="1">
      <g transform="translate(344.000000, 219.000000)">
        <path d="M110.66474,101.453434 C87.80014,124.367489 53.01494,126.660037 32.97184,106.573585 C12.92874,86.4871329 15.21634,51.6285986 38.08284,28.7145438 C60.94744,5.79858493 95.73074,3.50603699 115.77384,23.592489 C135.81694,43.6789411 133.52934,78.5393795 110.66474,101.453434" id="Fill-1" fill="#D28F52"></path>
        <path d="M115.7746,23.5932507 C95.7315,3.50679863 60.9482,5.79934658 38.0817,28.7134014 C24.6259,42.2002096 18.3046,59.8208397 19.4598,76.1352507 L63.346,120.116374 C79.6252,121.274073 97.2078,114.9391 110.6655,101.454196 C133.5301,78.538237 135.8177,43.6797027 115.7746,23.5932507" id="Fill-6" fill="#EF5253"></path>
        <path d="M127.51033,43.7762411 C127.71743,59.203337 121.38093,75.4815699 108.76493,88.1248575 C91.11203,105.81594 66.36073,111.202666 46.76793,103.500542 L47.13653,103.871844 L39.22493,111.800556 C59.68033,126.01283 90.02523,122.136063 110.66493,101.453625 C127.00493,85.0763781 132.83033,62.6021726 127.51033,43.7762411" id="Fill-26" fill="#010202" opacity="0.3"></path>
        <g id="Group-5" transform="translate(16.200000, 6.574662)">
          <mask id="mask-2" fill="white">
            <use xlink:href="#path-1"></use>
          </mask>
          <g id="Clip-4"></g>
          <path d="M65.41317,6.20743562 C50.95987,6.20743562 35.74467,12.2853534 23.89627,24.1593808 C2.18117,45.9233534 -0.11213,79.0396274 18.78717,97.9798055 C37.68457,116.919984 70.73317,114.621723 92.44827,92.8596548 C114.16527,71.0937781 116.45857,37.9794082 97.55927,19.037326 C88.96937,10.4307507 77.45347,6.20743562 65.41317,6.20743562 M50.92947,116.508696 C37.42047,116.508696 24.45297,111.736997 14.75727,102.018422 C-6.36503,80.8504356 -4.07173,44.1106411 19.86637,20.1207644 C43.80257,-3.86911233 80.46497,-6.17118082 101.58917,14.9987096 C122.71147,36.1666959 120.41817,72.9064904 96.48007,96.8982712 C83.52967,109.876682 66.85337,116.508696 50.92947,116.508696" id="Fill-3" fill="#2E2E31" mask="url(#mask-2)"></path>
        </g>
        <g id="Group-10" transform="translate(16.200000, 6.574662)" fill="#2E2E31">
          <path d="M48.39677,110.756762 C64.29407,111.558392 80.26167,105.072995 92.45017,92.8600356 C114.16527,71.0941589 116.45857,37.9778849 97.55927,19.0377068 C78.65807,0.0956246575 45.61137,2.39578904 23.89627,24.1597616 C11.70587,36.3765288 5.23637,52.4091315 6.04007,68.3065425 L48.39677,110.756762 Z M51.03777,116.535734 C49.67357,116.535734 48.30937,116.488132 46.94327,116.391022 C46.25927,116.343419 45.61517,116.048282 45.13067,115.56083 L1.24637,71.5797068 C0.75997,71.0941589 0.46547,70.4486658 0.41797,69.7631863 C-0.84933,51.8702685 6.23957,33.7774192 19.86637,20.1192411 C43.80257,-3.86873151 80.46497,-6.1708 101.58917,14.9990904 C122.71147,36.1670767 120.41817,72.9068712 96.48007,96.8986521 C83.89447,109.511474 67.52787,116.535734 51.03777,116.535734 L51.03777,116.535734 Z" id="Fill-8"></path>
        </g>
        <path d="M17.59894,133.474084 C14.22454,136.855782 8.75064,136.855782 5.37624,133.474084 C1.99994,130.092385 1.99994,124.606645 5.37624,121.224947 C8.75064,117.841344 14.22454,117.841344 17.59894,121.224947 C20.97334,124.606645 20.97334,130.092385 17.59894,133.474084" id="Fill-11" fill="#72553F"></path>
        <g id="Group-15" transform="translate(0.000000, 115.108908)">
          <mask id="mask-4" fill="white">
            <use xlink:href="#path-3"></use>
          </mask>
          <g id="Clip-14"></g>
          <path d="M11.48759,6.43802329 C10.00369,6.43802329 8.51979,7.00354384 7.39119,8.13648904 C5.13209,10.3985712 5.13209,14.0830233 7.39119,16.3451055 C9.65029,18.6109959 13.32489,18.6109959 15.58399,16.3451055 C17.84309,14.0830233 17.84309,10.3985712 15.58399,8.13648904 C14.45539,7.00354384 12.97149,6.43802329 11.48759,6.43802329 M11.48759,23.7539959 C8.54449,23.7539959 5.59949,22.6305712 3.36129,20.3837219 C-1.12081,15.8938315 -1.12081,8.58776301 3.36129,4.0978726 C7.83959,-0.395826027 15.13559,-0.395826027 19.61389,4.0978726 C24.09599,8.58776301 24.09599,15.8938315 19.61389,20.3837219 C17.37569,22.6305712 14.43069,23.7539959 11.48759,23.7539959" id="Fill-13" fill="#2E2E31" mask="url(#mask-4)"></path>
        </g>
        <polygon id="Fill-16" fill="#D28F52" points="18.069 133.002816 5.8463 120.753679 34.9144 91.6227068 47.1371 103.871844"></polygon>
        <path d="M9.87715,120.752918 L18.06995,128.963438 L43.10625,103.872986 L34.91535,95.6605616 L9.87715,120.752918 Z M18.06995,135.860123 L18.06995,135.860123 C17.31375,135.860123 16.58795,135.55737 16.05405,135.022315 L3.83135,122.773178 C2.71795,121.65737 2.71795,119.848466 3.83135,118.732658 L32.89945,89.603589 C33.43335,89.0666301 34.15915,88.7657808 34.91535,88.7657808 C35.66965,88.7657808 36.39545,89.0666301 36.92935,89.603589 L49.15205,101.852726 C50.26545,102.968534 50.26545,104.775534 49.15205,105.891342 L20.08395,135.022315 C19.55005,135.55737 18.82425,135.860123 18.06995,135.860123 L18.06995,135.860123 Z" id="Fill-18" fill="#2E2E31"></path>
        <path d="M66.29556,32.515337 C59.52396,39.3015836 48.54386,39.3015836 41.77036,32.515337 C34.99876,25.7290904 34.99876,14.7252411 41.77036,7.93709041 C48.54386,1.15084384 59.52396,1.15084384 66.29556,7.93709041 C73.06716,14.7252411 73.06716,25.7290904 66.29556,32.515337" id="Fill-20" fill="#E9E9E9"></path>
        <path d="M66.29556,7.93766164 C65.73506,7.37594932 65.13656,6.87897671 64.52286,6.40866164 C66.88456,12.6141548 65.58496,19.8992781 60.59556,24.8994699 C54.38446,31.1240041 44.64126,31.6209767 37.84306,26.4265658 C38.68666,28.6448534 39.98816,30.7279493 41.77036,32.5159082 C48.54386,39.3021548 59.52396,39.3021548 66.29556,32.5159082 C73.06716,25.7277575 73.06716,14.7239082 66.29556,7.93766164" id="Fill-24" fill="#010202" opacity="0.3"></path>
        <path d="M54.03353,5.71042466 C50.32283,5.71042466 46.61213,7.12517808 43.78493,9.95658904 C38.13623,15.619411 38.13623,24.8333973 43.78493,30.4962192 C46.52283,33.238137 50.16323,34.7480959 54.03353,34.7480959 C57.90383,34.7480959 61.54423,33.238137 64.28213,30.4962192 C69.93083,24.8333973 69.93083,15.619411 64.28213,9.95658904 C61.45493,7.12517808 57.74423,5.71042466 54.03353,5.71042466 M54.03353,40.4509041 C48.86173,40.4509041 43.69183,38.4801507 39.75503,34.5348356 C31.88333,26.6442055 31.88333,13.8086027 39.75503,5.9179726 C47.62673,-1.97265753 60.44033,-1.97265753 68.31203,5.9179726 C76.18373,13.8086027 76.18373,26.6442055 68.31203,34.5348356 C64.37523,38.4801507 59.20533,40.4509041 54.03353,40.4509041" id="Fill-22" fill="#2E2E31"></path>
      </g>
    </g>
  </g>
</svg>
